<svg xmlns="http://www.w3.org/2000/svg" xmlns:xlink="http://www.w3.org/1999/xlink" width="1080" zoomAndPan="magnify" viewBox="0 0 810 809.999993" height="1080" preserveAspectRatio="xMidYMid meet" version="1.2"><defs><clipPath id="298e4c0f0d"><path d="M 16 21 L 793 21 L 793 797.003906 L 16 797.003906 Z M 16 21 "/></clipPath><clipPath id="833ff03518"><path d="M 495.164062 500.769531 L 526.5 500.769531 L 526.5 526.5 L 495.164062 526.5 Z M 495.164062 500.769531 "/></clipPath><clipPath id="0a139b098d"><path d="M 0.164062 0.769531 L 31.5 0.769531 L 31.5 26.5 L 0.164062 26.5 Z M 0.164062 0.769531 "/></clipPath><clipPath id="ea833a33b1"><rect x="0" width="32" y="0" height="27"/></clipPath></defs><g id="29ab678bd8"><g clip-rule="nonzero" clip-path="url(#298e4c0f0d)"><path style=" stroke:none;fill-rule:nonzero;fill:#2b469e;fill-opacity:1;" d="M 514.582031 408.976562 L 770.132812 153.425781 C 800.4375 123.148438 800.4375 74.019531 770.132812 43.714844 C 739.828125 13.433594 690.75 13.433594 660.445312 43.714844 L 404.898438 299.265625 L 149.347656 43.742188 C 119.070312 13.4375 69.9375 13.4375 39.632812 43.742188 C 9.355469 74.019531 9.355469 123.148438 39.632812 153.453125 L 295.183594 408.976562 L 39.015625 665.144531 C 8.734375 695.425781 8.734375 744.554688 39.015625 774.832031 C 54.140625 789.984375 74.023438 797.5625 93.859375 797.5625 C 113.691406 797.5625 133.574219 789.984375 148.726562 774.832031 L 404.871094 518.691406 L 660.394531 774.214844 C 675.546875 789.367188 695.40625 796.941406 715.238281 796.941406 C 735.070312 796.941406 754.929688 789.367188 770.082031 774.214844 C 800.386719 743.933594 800.386719 694.804688 770.082031 664.527344 Z M 514.582031 408.976562 "/></g><g clip-rule="nonzero" clip-path="url(#833ff03518)"><g transform="matrix(1,0,0,1,495,500)"><g clip-path="url(#ea833a33b1)"><g clip-rule="nonzero" clip-path="url(#0a139b098d)"><path style=" stroke:none;fill-rule:nonzero;fill:#2b469e;fill-opacity:1;" d="M 0.164062 0.769531 L 31.519531 0.769531 L 31.519531 26.5 L 0.164062 26.5 Z M 0.164062 0.769531 "/></g></g></g></g></g></svg>