<svg xmlns="http://www.w3.org/2000/svg" xmlns:xlink="http://www.w3.org/1999/xlink" width="1080" zoomAndPan="magnify" viewBox="0 0 810 809.999993" height="1080" preserveAspectRatio="xMidYMid meet" version="1.2"><defs><clipPath id="de7f63951c"><path d="M 305.3125 20.964844 L 336.648438 20.964844 L 336.648438 46.695312 L 305.3125 46.695312 Z M 305.3125 20.964844 "/></clipPath><clipPath id="7a8dbac233"><path d="M 0.3125 0.964844 L 31.648438 0.964844 L 31.648438 26.695312 L 0.3125 26.695312 Z M 0.3125 0.964844 "/></clipPath><clipPath id="6dc28be94b"><rect x="0" width="32" y="0" height="27"/></clipPath></defs><g id="76b97324a0"><path style=" stroke:none;fill-rule:nonzero;fill:#e6efff;fill-opacity:1;" d="M 182.214844 0 L 627.3125 0 C 677.609375 0 723.164062 20.402344 756.378906 53.621094 C 789.121094 86.363281 810 132.390625 810 182.214844 L 810 627.3125 C 810 677.609375 789.121094 723.164062 756.378906 756.378906 C 723.164062 789.121094 677.609375 810 627.3125 810 L 182.214844 810 C 132.390625 810 86.363281 789.121094 53.621094 756.378906 C 20.402344 723.164062 0 677.609375 0 627.3125 L 0 182.214844 C 0 132.390625 20.402344 86.363281 53.621094 53.621094 C 86.363281 20.402344 132.390625 0 182.214844 0 Z M 627.3125 72.125 L 182.214844 72.125 C 151.84375 72.125 124.324219 84.464844 104.394531 104.394531 C 84.464844 124.324219 72.125 151.84375 72.125 182.214844 L 72.125 627.3125 C 72.125 657.679688 84.464844 685.203125 104.394531 705.132812 C 124.324219 725.535156 151.84375 737.875 182.214844 737.875 L 627.3125 737.875 C 657.679688 737.875 685.203125 725.535156 705.132812 705.132812 C 725.535156 685.203125 737.875 657.679688 737.875 627.3125 L 737.875 182.214844 C 737.875 151.84375 725.535156 124.324219 705.132812 104.394531 C 685.203125 84.464844 657.679688 72.125 627.3125 72.125 Z M 627.3125 72.125 "/><path style=" stroke:none;fill-rule:nonzero;fill:#e6efff;fill-opacity:1;" d="M 632.054688 141.40625 C 642.019531 141.40625 651.511719 145.203125 657.679688 151.84375 C 664.324219 158.488281 668.59375 167.503906 668.59375 177.46875 C 668.59375 187.433594 664.324219 196.925781 657.679688 203.09375 C 651.511719 209.738281 642.019531 214.007812 632.054688 214.007812 C 622.089844 214.007812 613.074219 209.738281 606.433594 203.09375 C 599.789062 196.925781 595.992188 187.433594 595.992188 177.46875 C 595.992188 167.503906 599.789062 158.488281 606.433594 151.84375 C 613.074219 145.203125 622.089844 141.40625 632.054688 141.40625 Z M 632.054688 141.40625 "/><path style=" stroke:none;fill-rule:nonzero;fill:#e6efff;fill-opacity:1;" d="M 404.761719 208.3125 C 459.332031 208.3125 508.207031 230.613281 543.796875 265.730469 C 579.386719 301.316406 601.6875 350.667969 601.6875 404.761719 C 601.6875 459.332031 579.386719 508.207031 543.796875 543.796875 C 508.207031 579.386719 459.332031 601.6875 404.761719 601.6875 C 350.667969 601.6875 301.316406 579.386719 265.730469 543.796875 C 230.613281 508.207031 208.3125 459.332031 208.3125 404.761719 C 208.3125 350.667969 230.613281 301.316406 265.730469 265.730469 C 301.316406 230.613281 350.667969 208.3125 404.761719 208.3125 Z M 492.546875 317.453125 C 470.246094 295.148438 438.929688 280.914062 404.761719 280.914062 C 370.597656 280.914062 339.753906 295.148438 317.453125 317.453125 C 295.148438 339.753906 280.914062 370.597656 280.914062 404.761719 C 280.914062 438.929688 295.148438 470.246094 317.453125 492.546875 C 339.753906 514.851562 370.597656 528.613281 404.761719 528.613281 C 438.929688 528.613281 470.246094 514.851562 492.546875 492.546875 C 514.851562 470.246094 528.613281 438.929688 528.613281 404.761719 C 528.613281 370.597656 514.851562 339.753906 492.546875 317.453125 Z M 492.546875 317.453125 "/><g clip-rule="nonzero" clip-path="url(#de7f63951c)"><g transform="matrix(1,0,0,1,305,20)"><g clip-path="url(#6dc28be94b)"><g clip-rule="nonzero" clip-path="url(#7a8dbac233)"><path style=" stroke:none;fill-rule:nonzero;fill:#e6efff;fill-opacity:1;" d="M 0.3125 0.964844 L 31.671875 0.964844 L 31.671875 26.695312 L 0.3125 26.695312 Z M 0.3125 0.964844 "/></g></g></g></g></g></svg>