<svg xmlns="http://www.w3.org/2000/svg" xmlns:xlink="http://www.w3.org/1999/xlink" width="282" zoomAndPan="magnify" viewBox="0 0 211.5 149.999998" height="200" preserveAspectRatio="xMidYMid meet" version="1.2"><defs><clipPath id="1c69ec76be"><path d="M 0 123 L 211 123 L 211 149.820312 L 0 149.820312 Z M 0 123 "/></clipPath><clipPath id="7115846dfc"><path d="M 0 0.175781 L 211 0.175781 L 211 27 L 0 27 Z M 0 0.175781 "/></clipPath><clipPath id="6cb4124a78"><path d="M 14.964844 133.378906 L 18.707031 133.378906 L 18.707031 137.121094 L 14.964844 137.121094 Z M 14.964844 133.378906 "/></clipPath><clipPath id="ddda15afa2"><path d="M 0.964844 0.378906 L 4.707031 0.378906 L 4.707031 4.121094 L 0.964844 4.121094 Z M 0.964844 0.378906 "/></clipPath><clipPath id="26b678d7f8"><rect x="0" width="5" y="0" height="5"/></clipPath></defs><g id="d27b1de58d"><path style=" stroke:none;fill-rule:nonzero;fill:#2b469e;fill-opacity:1;" d="M 197.59375 61.691406 L 13.171875 61.691406 C 5.898438 61.691406 0 67.589844 0 74.867188 C 0 82.140625 5.898438 88.039062 13.171875 88.039062 L 197.59375 88.039062 C 204.871094 88.039062 210.765625 82.140625 210.765625 74.867188 C 210.765625 67.589844 204.871094 61.691406 197.59375 61.691406 Z M 197.59375 61.691406 "/><g clip-rule="nonzero" clip-path="url(#1c69ec76be)"><path style=" stroke:none;fill-rule:nonzero;fill:#2b469e;fill-opacity:1;" d="M 197.59375 123.167969 L 13.171875 123.167969 C 5.898438 123.167969 0 129.0625 0 136.339844 C 0 143.613281 5.898438 149.511719 13.171875 149.511719 L 197.59375 149.511719 C 204.871094 149.511719 210.765625 143.617188 210.765625 136.339844 C 210.765625 129.0625 204.871094 123.167969 197.59375 123.167969 Z M 197.59375 123.167969 "/></g><g clip-rule="nonzero" clip-path="url(#7115846dfc)"><path style=" stroke:none;fill-rule:nonzero;fill:#2b469e;fill-opacity:1;" d="M 13.171875 26.566406 L 197.59375 26.566406 C 204.871094 26.566406 210.765625 20.667969 210.765625 13.390625 C 210.765625 6.117188 204.871094 0.21875 197.59375 0.21875 L 13.171875 0.21875 C 5.898438 0.21875 0 6.117188 0 13.390625 C 0 20.667969 5.898438 26.566406 13.171875 26.566406 Z M 13.171875 26.566406 "/></g><g clip-rule="nonzero" clip-path="url(#6cb4124a78)"><g transform="matrix(1,0,0,1,14,133)"><g clip-path="url(#26b678d7f8)"><g clip-rule="nonzero" clip-path="url(#ddda15afa2)"><path style=" stroke:none;fill-rule:nonzero;fill:#2b469e;fill-opacity:1;" d="M 0.964844 0.378906 L 4.707031 0.378906 L 4.707031 4.121094 L 0.964844 4.121094 Z M 0.964844 0.378906 "/></g></g></g></g></g></svg>